PathFileType	4	(X/Y/Z)	Patient4_TMGait_0pt2_03_left_17.trc.trc
DataRate	CameraRate	NumFrames	NumMarkers	Units	OrigDataRate	OrigDataStartFrame	OrigNumFrames
47.138047138047	47.138047138047	5	33	mm	47.138047138047	53	       141
Frame#	Time	Sacral			L.Shoulder			Chest			R.Shoulder			Neck			R.ASIS			L.ASIS			R.Thigh.Superior			R.Thigh.Lateral			R.Thigh.Inferior			R.Patella			L.Thigh.Superior			L.Thigh.Lateral			L.Thigh.Inferior			L.Patella			L.Shank.Superior			L.Shank.Lateral			L.Shank.Inferior			R.Shank.Superior			R.Shank.Lateral			R.Shank.Inferior			R.Heel			R.Midfoot.Superior			R.Midfoot.Lateral			R.Toe			L.Heel			L.Midfoot.Lateral			L.Midfoot.Superior			L.Toe			L.Elbow			L.Wrist			R.Elbow			R.Wrist			
		X1	Y1	Z1	X2	Y2	Z2	X3	Y3	Z3	X4	Y4	Z4	X5	Y5	Z5	X6	Y6	Z6	X7	Y7	Z7	X8	Y8	Z8	X9	Y9	Z9	X10	Y10	Z10	X11	Y11	Z11	X12	Y12	Z12	X13	Y13	Z13	X14	Y14	Z14	X15	Y15	Z15	X16	Y16	Z16	X17	Y17	Z17	X18	Y18	Z18	X19	Y19	Z19	X20	Y20	Z20	X21	Y21	Z21	X22	Y22	Z22	X23	Y23	Z23	X24	Y24	Z24	X25	Y25	Z25	X26	Y26	Z26	X27	Y27	Z27	X28	Y28	Z28	X29	Y29	Z29	X30	Y30	Z30	X31	Y31	Z31	X32	Y32	Z32	X33	Y33	Z33	

53	36.523142857143	790.588667283035	999.371517074297	420.755260846525	985.745317382469	1433.252904634508	269.870009375364	1074.636985287104	1358.277929869337	434.552024250989	978.258774681188	1419.282287251299	606.190318818545	940.090069652239	1486.225118107563	429.735414928785	1013.287707916756	931.170788368679	548.307339329995	1017.347530260790	959.167817161916	276.321984193100	1074.557877029861	737.344246174938	524.061424405043	1009.234341220015	626.897567865768	597.534096510433	1092.559361085502	571.039215053917	522.426712660458	1094.064731625108	462.792339601049	547.698401866006	1071.706994451586	748.522048835072	311.862439668372	991.482505252768	610.242253676504	251.019935095196	1090.129825000810	554.128976853473	319.964752017617	1096.210504148728	480.302560705883	329.328889040985	1059.038965129412	404.569974315566	325.239631866861	957.710226941182	298.729508412081	278.752390250522	994.020204656645	185.268837527008	352.232072701348	1017.017063189003	394.708984294089	561.805570365624	901.040135850993	359.880865533335	634.496317221521	880.479262056899	249.015432648988	589.757601871184	675.346677362786	187.965163030635	581.447134391060	846.238410797134	130.185065029161	611.588340659721	739.321229864619	128.376957863331	650.483699598305	913.388794430163	30.759764191706	630.597575275822	852.004978914824	39.044581728146	400.393664527420	921.968956833689	36.024708979270	316.283824897691	1007.645764970192	95.573820472577	340.242022695929	1133.940539110893	40.975719489453	304.058292618880	1035.610660118135	1096.222695430398	115.075526319216	1157.981191683439	864.766999090365	140.195250281080	953.221491212857	1060.128794831950	707.096155839588	1041.029391122798	815.207301953535	700.547432630578	
54	36.544357142857	789.942192056206	997.801679699203	416.103822315296	988.283936265691	1432.200927251819	267.952255749954	1074.131692574379	1357.013806722501	434.125601381358	974.658342240693	1417.804775413461	604.221326061199	940.026878819483	1484.955657626118	427.164910369051	1011.746856557069	930.574145852905	546.226918777475	1018.872035584474	957.998449837751	274.146481251976	1078.340656438152	740.013270560746	520.552954990802	1016.735043739225	627.936567763470	594.030462875052	1101.198891639978	574.088323835953	518.221980684010	1104.795067974559	464.701685477034	543.947534583173	1073.128973494336	747.146859803212	310.034568958070	993.019222781325	608.612555532812	249.643925927751	1091.216332148370	552.738392084579	319.442058725153	1097.330639567945	478.887666653468	329.318163421937	1059.186080963790	402.924566351833	325.227609658949	957.023555390276	297.989870369383	278.275122057837	991.292330981677	184.371234949678	352.354431758035	1026.487458278305	396.653244347228	558.564417721803	909.168716977112	364.699496330709	630.882099256950	886.629210475189	253.704779666303	587.129578160242	680.351611159236	198.429518647727	578.079099185237	849.653254801012	135.052979786490	609.936711294054	742.068339530278	137.392864135120	648.194910760497	913.204827515917	30.882704669281	630.797089037060	847.764824330528	39.044633720094	400.249585937079	917.766728846140	35.996565045446	316.162757907961	1003.478720242004	95.467651896254	340.307505544348	1129.750423618520	40.846909214133	304.026297808750	1049.147467497779	1098.503148757972	110.478539304904	1187.065652119724	876.349274501499	138.913081653217	930.298783298040	1061.342394730862	703.787719947764	996.031560931151	808.855594313921	701.497006129114	
55	36.565571428571	789.341937776238	997.084302735241	411.998859463935	990.912082313186	1431.795605850776	266.381563908056	1073.665693872647	1356.456650862994	434.015182055036	971.137756343830	1417.291782391854	602.423490203475	940.117084756393	1484.395507533995	424.888726949465	1010.085807018732	930.690907369166	544.735491028200	1020.166344864472	957.319653118198	272.644034975737	1081.316757456126	743.320659406833	517.655634028917	1023.218342038296	629.776086626645	591.146919576933	1108.567156483465	577.843120314308	514.605431257730	1114.238692278991	467.529055310630	540.738396145450	1073.825576010721	745.989060160726	308.756100896906	993.373122198360	607.499111420395	248.676012972917	1090.869794420390	551.560534332790	319.295820859791	1096.810832833429	477.819368989860	329.642700957830	1057.987920868494	401.762146572519	325.423323239096	955.351995412653	297.442721237053	277.960097865845	988.076957378933	183.741054412796	352.525303384852	1035.063290905742	399.264892065284	555.765297905916	916.541644216793	369.281404739662	627.407131552466	892.971885296625	258.062538145059	584.531546550307	686.063331101296	206.483413406591	574.232305447323	854.202504182408	139.620566062841	608.122135909629	746.034455591730	144.948834826719	645.645399668520	915.294304753569	31.668013709130	631.254538698024	843.488716337618	39.034545622263	400.111473870062	913.535368391607	35.968831910707	316.047971511662	999.270725176192	95.390109185995	340.350527208590	1125.523461945808	40.776219307881	303.999388595281	1061.823659366328	1101.672463568082	106.514644831039	1215.416325573326	890.661654361053	138.588776401232	907.361617001684	1064.671849098894	700.261053297274	952.200096883188	807.156957485094	701.378989936803	
56	36.586785714286	788.804801178385	997.299597312971	408.388631245455	993.664239021673	1432.091683111735	265.147331217519	1073.251749215274	1356.675085126534	434.211625343193	967.719834352072	1417.830218196214	600.780464072971	940.376473212407	1484.614381634663	422.884523588306	1008.266169579773	931.574651456225	543.834714328721	1021.257332515162	957.209794708342	271.827475589637	1083.404803643506	747.204890744710	515.478788273179	1028.464036328589	632.361746421596	588.975899680481	1114.512352065399	582.190875835965	511.782686471526	1122.206832331018	471.213653021627	538.274408720564	1073.738158282311	745.092315040056	308.030467356776	992.467604346849	606.987194787492	248.050245837759	1088.979527069271	550.646201087110	319.458208358756	1094.513088407506	477.147265420339	330.212287401021	1055.338518274096	401.138861228100	325.747737993070	952.615911103878	297.109600043904	277.751612583932	984.338060782690	183.407238663904	352.708693640624	1042.639238305437	402.451654299120	553.573565405099	923.124226956106	373.355000954034	624.273147125064	899.619350608038	261.803971060879	582.145100900140	692.646905965872	211.437116074606	570.177799189985	860.201101922215	143.598957438566	606.334908652521	751.537912510621	150.449255149159	643.039816706742	920.239315739190	33.173151963065	632.024126086188	839.173369647184	39.014644006500	399.980245081333	909.272063640220	35.939926099562	315.938790157698	995.018080308411	95.342341494141	340.361726098878	1121.259305013421	40.760009473228	303.979063615565	1073.649036155848	1105.642165642120	103.250910984161	1242.682482990859	907.676034501871	139.208353519239	884.815320702802	1070.099823402116	696.501954506136	910.372641243810	809.677834197291	700.194016464650	
57	36.608000000000	788.339520272798	998.445920454036	405.219427350974	996.563462377440	1433.073668936479	264.232808075175	1072.895577702760	1357.664307093864	434.696852554504	964.426911088928	1419.422199145206	599.275337208757	940.813188963115	1485.611784100307	421.123353997797	1006.261252988327	933.215824205462	543.511874823921	1022.189694843739	957.694698424072	271.683963525241	1084.559570208335	751.541170963781	514.110564565692	1032.292343894786	635.570141899060	587.582225840700	1118.922348113284	586.958171829028	509.918224892380	1128.559384607378	475.635105666534	536.706450749482	1072.848534922812	744.468474477125	307.847896009892	990.304899094390	607.110149578131	247.697841066962	1085.535749465435	550.020697373467	319.859618449193	1090.417594695061	476.887258227734	330.936879090524	1051.231348074163	401.069422154667	326.126336656966	948.806910062176	296.995725224820	277.599415894900	980.073524601008	183.376194174928	352.874084446149	1049.158200453807	406.072626629551	552.120644932402	928.971979672414	376.634025507319	621.695875632110	906.721591923366	264.659704695829	580.164832167552	700.340379300860	212.776644874852	566.261277056923	867.959752305520	146.709707540016	604.789079530759	758.920579401355	153.402685626242	640.628981557546	928.514435736799	35.359350892190	633.133233355018	834.819170178299	38.986036740283	399.857076928672	904.976709563874	35.908668988391	315.835028490664	990.720702782957	95.323532802992	340.335423509272	1116.960089293654	40.792202294033	303.966259466872	1084.662971024145	1110.262227852042	100.750451517240	1268.533286817514	927.224260579635	140.729444130235	863.091188628703	1077.464302700020	692.519184062989	871.281979674302	815.796714077308	697.985807807212	
